<?xml version="1.0" encoding="utf-8"?>
<!-- Generator: Adobe Illustrator 26.0.1, SVG Export Plug-In . SVG Version: 6.00 Build 0)  -->
<svg version="1.1" id="star" xmlns="http://www.w3.org/2000/svg" xmlns:xlink="http://www.w3.org/1999/xlink" x="0px" y="0px"
	 viewBox="0 0 512 512" style="enable-background:new 0 0 512 512;" xml:space="preserve">
<style type="text/css">
	.st0{fill-rule:evenodd;clip-rule:evenodd;}
</style>
<g id="Icons">
	<g id="Artboard-1" transform="translate(-966.000000, -238.000000)">
		<g id="icon-edit" transform="translate(966.000000, 238.000000)">
			<path id="Shape" class="st0" d="M358.3,88l-44.6,44.6c-4.3,4.3-4.3,11,0,14.9l57.1,57.1c4.3,4.3,11,4.3,14.9,0l44.6-44.6
				c4.3-4.3,4.3-11,0-14.9L373.1,88C369.3,83.7,362.6,83.7,358.3,88L358.3,88z"/>
			<path id="Shape_00000152253572452085187930000013007156793009172414_" class="st0" d="M120.3,328.8c-2.4,1-4.3,1.9-5.8,3.4
				l-2.9,2.4l-31.2,72c-3.8,8.6-1.9,18.7,4.8,25.4c6.7,6.7,16.8,8.6,25.4,4.8l69.1-29.7c3.4-1.4,6.2-3.8,7.7-6.7
				c0.5-1,1.4-2.4,1.9-3.4c7.2-17.3-9.6-37.4-20.1-48C160.1,341.3,138.1,321.6,120.3,328.8L120.3,328.8z"/>
			<path id="Shape_00000049935798338339678530000007600620484705996987_" class="st0" d="M143.3,302.9c-4.3,4.3-2.9,12,2.9,13.9
				c13.4,5.3,24.9,15.4,32.6,23c10.6,10.6,18.2,21.1,22.1,31.2c2.4,5.8,10.1,7.7,14.4,2.9l146.8-146.8c3.4-3.4,3.4-9.1,0-12.5
				l-59.5-59.5c-3.4-3.4-9.1-3.4-12.5,0L143.3,302.9L143.3,302.9z"/>
		</g>
	</g>
</g>
</svg>
