<?xml version="1.0" encoding="utf-8"?>
<!-- Generator: Adobe Illustrator 26.0.1, SVG Export Plug-In . SVG Version: 6.00 Build 0)  -->
<svg version="1.1" id="star" xmlns="http://www.w3.org/2000/svg" xmlns:xlink="http://www.w3.org/1999/xlink" x="0px" y="0px"
	 viewBox="0 0 512 512" style="enable-background:new 0 0 512 512;" xml:space="preserve">
<path d="M276.9,76l44.4,89.9c3.4,6.9,10,11.6,17.6,12.8l99.3,14.4c19.1,2.8,26.8,26.3,12.9,39.8l-71.8,70c-5.5,5.4-8,13.1-6.7,20.6
	l17,98.9c3.3,19-16.7,33.6-33.8,24.6l-88.8-46.7c-6.8-3.6-14.9-3.6-21.7,0L156.4,447c-17.1,9-37.1-5.5-33.8-24.6l17-98.9
	c1.3-7.6-1.2-15.3-6.7-20.6l-71.8-70c-13.8-13.5-6.2-37,12.9-39.8l99.3-14.4c7.6-1.1,14.2-5.9,17.6-12.8L235.1,76
	C243.6,58.7,268.4,58.7,276.9,76z"/>
</svg>
