<?xml version="1.0" encoding="utf-8"?>
<!-- Generator: Adobe Illustrator 26.0.1, SVG Export Plug-In . SVG Version: 6.00 Build 0)  -->
<svg version="1.1" id="Layer_1" xmlns="http://www.w3.org/2000/svg" xmlns:xlink="http://www.w3.org/1999/xlink" x="0px" y="0px"
	 viewBox="0 0 512 512" style="enable-background:new 0 0 512 512;" xml:space="preserve">
<style type="text/css">
	.st0{fill:#231F20;}
</style>
<g>
	<path class="st0" d="M135.9,188.4L48.5,339.8c-11.5,19.8,2.8,44.2,25.3,44.2c21.6,0,32.7-35.4,87.4-35.4
		c59.8,0,65.8,35.4,87.4,35.4c22.5,0,36.8-24.4,25.3-44.2l-87-151.4C175.5,168.6,147.4,168.6,135.9,188.4z"/>
	<path class="st0" d="M330.5,358.6l-87.4-151.4c-11.5-19.8,2.8-44.2,25.3-44.2h174.8c22.5,0,36.8,24.4,25.3,44.2l-87.4,151.4
		C370.1,378.4,341.6,378.4,330.5,358.6z"/>
</g>
</svg>
